<svg width="70" height="70" viewBox="0 0 70 70" fill="none" xmlns="http://www.w3.org/2000/svg">
<path d="M45.6641 5.46875C45.6641 4.88859 45.4336 4.33219 45.0234 3.92195C44.6131 3.51172 44.0567 3.28125 43.4766 3.28125H27.8906C27.3105 3.28125 26.7541 3.51172 26.3438 3.92195C25.9336 4.33219 25.7031 4.88859 25.7031 5.46875V22.4465C25.7031 23.0266 25.9336 23.583 26.3438 23.9933C26.7541 24.4035 27.3105 24.634 27.8906 24.634H43.4766C44.0567 24.634 44.6131 24.4035 45.0234 23.9933C45.4336 23.583 45.6641 23.0266 45.6641 22.4465V5.46875ZM32.1289 13.4668C31.4334 12.8809 30.9347 12.0953 30.7006 11.2165C30.4665 10.3377 30.5082 9.40815 30.8201 8.55385C31.132 7.69954 31.699 6.96177 32.4442 6.44049C33.1894 5.91921 34.0769 5.63963 34.9863 5.63963C35.8958 5.63963 36.7832 5.91921 37.5285 6.44049C38.2737 6.96177 38.8407 7.69954 39.1525 8.55385C39.4644 9.40815 39.5061 10.3377 39.272 11.2165C39.0379 12.0953 38.5393 12.8809 37.8437 13.4668L37.6551 13.6254L37.8902 13.6992C39.1806 14.1059 40.3073 14.9141 41.1061 16.0061C41.9049 17.098 42.334 18.4166 42.3309 19.7695V21.7246C42.3309 21.8696 42.2732 22.0087 42.1707 22.1113C42.0681 22.2139 41.929 22.2715 41.784 22.2715H28.1996C28.0546 22.2715 27.9155 22.2139 27.8129 22.1113C27.7104 22.0087 27.6527 21.8696 27.6527 21.7246V19.7695C27.6496 18.4166 28.0787 17.098 28.8775 16.0061C29.6763 14.9141 30.803 14.1059 32.0934 13.6992L32.3285 13.6254L32.1289 13.4668Z" fill="#40BDFF"/>
<path d="M34.6363 13.3985H35.3609C36.2107 13.3058 36.9926 12.891 37.5458 12.2393C38.0991 11.5877 38.3815 10.7489 38.3351 9.89534C38.2887 9.04181 37.917 8.23852 37.2963 7.65073C36.6757 7.06294 35.8534 6.73535 34.9986 6.73535C34.1438 6.73535 33.3216 7.06294 32.7009 7.65073C32.0803 8.23852 31.7086 9.04181 31.6622 9.89534C31.6157 10.7489 31.8982 11.5877 32.4514 12.2393C33.0047 12.891 33.7866 13.3058 34.6363 13.3985Z" fill="#EFFAFE"/>
<path d="M28.7465 19.7695V21.1777H41.2508V19.7695C41.2493 18.3708 40.6932 17.0298 39.7045 16.0404C38.7157 15.0511 37.3749 14.4944 35.9762 14.4922H34.0211C32.6224 14.4944 31.2816 15.0511 30.2928 16.0404C29.304 17.0298 28.7479 18.3708 28.7465 19.7695Z" fill="#EFFAFE"/>
<path d="M49.7902 61.8543V63.2625H62.2945V61.8543C62.2924 60.4561 61.7359 59.1157 60.7472 58.127C59.7585 57.1383 58.4182 56.5819 57.0199 56.5797H55.0648C53.6666 56.5819 52.3262 57.1383 51.3375 58.127C50.3488 59.1157 49.7924 60.4561 49.7902 61.8543Z" fill="#EFFAFE"/>
<path d="M64.5313 45.366H48.9207C48.3406 45.366 47.7842 45.5964 47.3739 46.0067C46.9637 46.4169 46.7332 46.9733 46.7332 47.5535V64.5312C46.7332 65.1114 46.9637 65.6678 47.3739 66.078C47.7842 66.4882 48.3406 66.7187 48.9207 66.7187H64.5313C65.1114 66.7187 65.6678 66.4882 66.0781 66.078C66.4883 65.6678 66.7188 65.1114 66.7188 64.5312V47.5535C66.7188 46.9733 66.4883 46.4169 66.0781 46.0067C65.6678 45.5964 65.1114 45.366 64.5313 45.366ZM51.6059 52.1636C51.6059 50.9873 52.0731 49.8592 52.9049 49.0275C53.7367 48.1957 54.8647 47.7285 56.041 47.7285C57.2173 47.7285 58.3454 48.1957 59.1772 49.0275C60.0089 49.8592 60.4762 50.9873 60.4762 52.1636C60.4762 53.5144 59.9293 54.6792 58.7098 55.7183C61.827 56.7109 63.3883 59.232 63.3883 61.8625V63.8175C63.3883 63.9626 63.3307 64.1017 63.2281 64.2042C63.1256 64.3068 62.9865 64.3644 62.8414 64.3644H49.2434C49.0983 64.3644 48.9592 64.3068 48.8567 64.2042C48.7541 64.1017 48.6965 63.9626 48.6965 63.8175V61.8625C48.6965 59.2156 50.2688 56.7054 53.375 55.7183C52.1555 54.6875 51.6059 53.5144 51.6059 52.1636Z" fill="#FFDD00"/>
<path d="M55.6801 55.4832H56.4047C57.2545 55.3905 58.0364 54.9757 58.5896 54.3241C59.1428 53.6724 59.4253 52.8336 59.3789 51.9801C59.3325 51.1265 58.9607 50.3232 58.3401 49.7354C57.7195 49.1477 56.8972 48.8201 56.0424 48.8201C55.1876 48.8201 54.3653 49.1477 53.7447 49.7354C53.1241 50.3232 52.7523 51.1265 52.7059 51.9801C52.6595 52.8336 52.942 53.6724 53.4952 54.3241C54.0484 54.9757 54.8303 55.3905 55.6801 55.4832Z" fill="#EFFAFE"/>
<path d="M7.70547 61.8543V63.2625H20.2098V61.8543C20.2076 60.4561 19.6512 59.1157 18.6625 58.127C17.6738 57.1383 16.3334 56.5819 14.9352 56.5797H12.9801C11.5818 56.5819 10.2415 57.1383 9.25277 58.127C8.26406 59.1157 7.70764 60.4561 7.70547 61.8543Z" fill="#EFFAFE"/>
<path d="M22.4465 45.366H6.83594C6.25578 45.366 5.69938 45.5964 5.28914 46.0067C4.87891 46.4169 4.64844 46.9733 4.64844 47.5535V64.5312C4.64844 65.1114 4.87891 65.6678 5.28914 66.078C5.69938 66.4882 6.25578 66.7187 6.83594 66.7187H22.4465C23.0266 66.7187 23.583 66.4882 23.9933 66.078C24.4035 65.6678 24.634 65.1114 24.634 64.5312V47.5535C24.634 46.9733 24.4035 46.4169 23.9933 46.0067C23.583 45.5964 23.0266 45.366 22.4465 45.366ZM11.0988 55.5515C10.4033 54.9656 9.90467 54.18 9.67056 53.3012C9.43645 52.4224 9.47816 51.4929 9.79003 50.6386C10.1019 49.7843 10.6689 49.0465 11.4141 48.5252C12.1593 48.0039 13.0468 47.7243 13.9563 47.7243C14.8657 47.7243 15.7532 48.0039 16.4984 48.5252C17.2436 49.0465 17.8106 49.7843 18.1225 50.6386C18.4343 51.4929 18.4761 52.4224 18.2419 53.3012C18.0078 54.18 17.5092 54.9656 16.8137 55.5515L16.625 55.7101L16.8602 55.7839C18.1505 56.1906 19.2772 56.9989 20.076 58.0908C20.8748 59.1828 21.3039 60.5013 21.3008 61.8542V63.8093C21.3008 63.9544 21.2432 64.0935 21.1406 64.196C21.038 64.2986 20.8989 64.3562 20.7539 64.3562H7.15859C7.01355 64.3562 6.87445 64.2986 6.77189 64.196C6.66934 64.0935 6.61172 63.9544 6.61172 63.8093V61.8542C6.60799 60.5009 7.03683 59.1817 7.83567 58.0892C8.6345 56.9967 9.76154 56.188 11.0523 55.7812L11.2875 55.7074L11.0988 55.5515Z" fill="#EB5639"/>
<path d="M13.5953 55.4832H14.3199C15.1697 55.3905 15.9516 54.9757 16.5048 54.3241C17.058 53.6724 17.3405 52.8336 17.2941 51.9801C17.2477 51.1265 16.8759 50.3232 16.2553 49.7354C15.6347 49.1477 14.8124 48.8201 13.9576 48.8201C13.1028 48.8201 12.2805 49.1477 11.6599 49.7354C11.0393 50.3232 10.6676 51.1265 10.6211 51.9801C10.5747 52.8336 10.8572 53.6724 11.4104 54.3241C11.9636 54.9757 12.7456 55.3905 13.5953 55.4832Z" fill="#EFFAFE"/>
<path d="M14.9352 56.5797H13.568C14.9662 56.5819 16.3066 57.1383 17.2953 58.127C18.284 59.1157 18.8404 60.4561 18.8426 61.8543V63.2625H20.2098V61.8543C20.2076 60.4561 19.6512 59.1157 18.6625 58.127C17.6738 57.1383 16.3334 56.5819 14.9352 56.5797Z" fill="#E4EBED"/>
<path d="M13.9453 48.8223C13.7156 48.8224 13.4865 48.8462 13.2617 48.8934C14.0125 49.0508 14.6863 49.4617 15.1699 50.0572C15.6536 50.6528 15.9175 51.3965 15.9175 52.1637C15.9175 52.9308 15.6536 53.6746 15.1699 54.2701C14.6863 54.8656 14.0125 55.2766 13.2617 55.434C13.3656 55.4559 13.475 55.4723 13.5816 55.4859H14.3062C15.1569 55.3945 15.9401 54.9802 16.4944 54.3285C17.0487 53.6768 17.3319 52.8373 17.2856 51.9829C17.2394 51.1286 16.8672 50.3246 16.2457 49.7366C15.6242 49.1485 14.8009 48.8213 13.9453 48.8223Z" fill="#E4EBED"/>
<path d="M57.0199 56.5797H55.6527C57.051 56.5819 58.3913 57.1383 59.3801 58.127C60.3688 59.1157 60.9252 60.4561 60.9274 61.8543V63.2625H62.2945V61.8543C62.2924 60.4561 61.736 59.1157 60.7472 58.127C59.7585 57.1383 58.4182 56.5819 57.0199 56.5797Z" fill="#E4EBED"/>
<path d="M56.0547 48.8223C55.825 48.8224 55.5959 48.8462 55.3711 48.8934C56.1219 49.0508 56.7957 49.4617 57.2793 50.0572C57.7629 50.6528 58.0269 51.3965 58.0269 52.1637C58.0269 52.9308 57.7629 53.6746 57.2793 54.2701C56.7957 54.8656 56.1219 55.2766 55.3711 55.434C55.475 55.4559 55.5844 55.4723 55.691 55.4859H56.4156C57.2663 55.3945 58.0495 54.9802 58.6038 54.3285C59.1581 53.6768 59.4413 52.8373 59.395 51.9829C59.3487 51.1286 58.9765 50.3246 58.3551 49.7366C57.7336 49.1485 56.9103 48.8213 56.0547 48.8223Z" fill="#E4EBED"/>
<path d="M35.9762 14.4922H34.609C36.0082 14.4936 37.3496 15.0501 38.339 16.0395C39.3284 17.0289 39.8849 18.3703 39.8863 19.7695V21.1777H41.2535V19.7695C41.2521 18.3703 40.6956 17.0289 39.7062 16.0395C38.7168 15.0501 37.3754 14.4936 35.9762 14.4922Z" fill="#E4EBED"/>
<path d="M35 6.73749C34.7703 6.73765 34.5412 6.76147 34.3164 6.80858C35.0672 6.96599 35.741 7.37696 36.2246 7.97246C36.7082 8.56797 36.9722 9.31175 36.9722 10.0789C36.9722 10.846 36.7082 11.5898 36.2246 12.1853C35.741 12.7808 35.0672 13.1918 34.3164 13.3492C34.4203 13.3711 34.5297 13.3875 34.6363 13.4012H35.3609C36.2116 13.3097 36.9948 12.8955 37.5491 12.2437C38.1034 11.592 38.3866 10.7525 38.3403 9.89817C38.2941 9.04385 37.9218 8.23983 37.3004 7.6518C36.6789 7.06376 35.8556 6.73651 35 6.73749Z" fill="#E4EBED"/>
<path d="M43.4766 3.28125H42.1094C42.6895 3.28125 43.2459 3.51172 43.6562 3.92195C44.0664 4.33219 44.2969 4.88859 44.2969 5.46875V22.4465C44.2969 23.0266 44.0664 23.583 43.6562 23.9933C43.2459 24.4035 42.6895 24.634 42.1094 24.634H43.4766C44.0567 24.634 44.6131 24.4035 45.0234 23.9933C45.4336 23.583 45.6641 23.0266 45.6641 22.4465V5.46875C45.6641 4.88859 45.4336 4.33219 45.0234 3.92195C44.6131 3.51172 44.0567 3.28125 43.4766 3.28125Z" fill="#2197F7"/>
<path d="M22.4465 45.366H21.0793C21.6594 45.366 22.2158 45.5964 22.6261 46.0067C23.0363 46.4169 23.2668 46.9733 23.2668 47.5535V64.5312C23.2668 65.1114 23.0363 65.6678 22.6261 66.078C22.2158 66.4882 21.6594 66.7187 21.0793 66.7187H22.4465C23.0266 66.7187 23.583 66.4882 23.9933 66.078C24.4035 65.6678 24.634 65.1114 24.634 64.5312V47.5535C24.634 46.9733 24.4035 46.4169 23.9933 46.0067C23.583 45.5964 23.0266 45.366 22.4465 45.366Z" fill="#D84936"/>
<path d="M64.5312 45.366H63.1641C63.7442 45.366 64.3006 45.5964 64.7109 46.0067C65.1211 46.4169 65.3516 46.9733 65.3516 47.5535V64.5312C65.3516 65.1114 65.1211 65.6678 64.7109 66.078C64.3006 66.4882 63.7442 66.7187 63.1641 66.7187H64.5312C65.1114 66.7187 65.6678 66.4882 66.078 66.078C66.4883 65.6678 66.7188 65.1114 66.7188 64.5312V47.5535C66.7188 46.9733 66.4883 46.4169 66.078 46.0067C65.6678 45.5964 65.1114 45.366 64.5312 45.366Z" fill="#EFC803"/>
<path d="M37.9477 13.5707C38.6645 12.9666 39.1782 12.1568 39.4194 11.2509C39.6605 10.3451 39.6174 9.38702 39.2958 8.5065C38.9743 7.62598 38.3898 6.86559 37.6217 6.32833C36.8535 5.79108 35.9388 5.50293 35.0014 5.50293C34.064 5.50293 33.1492 5.79108 32.3811 6.32833C31.6129 6.86559 31.0285 7.62598 30.7069 8.5065C30.3853 9.38702 30.3422 10.3451 30.5834 11.2509C30.8245 12.1568 31.3383 12.9666 32.0551 13.5707C30.7393 13.9897 29.5906 14.8158 28.7748 15.93C27.9589 17.0441 27.5182 18.3886 27.516 19.7695V21.7246C27.516 21.9059 27.588 22.0798 27.7162 22.208C27.8444 22.3362 28.0183 22.4082 28.1996 22.4082H41.7977C41.979 22.4082 42.1528 22.3362 42.281 22.208C42.4092 22.0798 42.4813 21.9059 42.4813 21.7246V19.7695C42.4795 18.3893 42.0395 17.0453 41.2247 15.9313C40.4099 14.8172 39.2625 13.9906 37.9477 13.5707ZM31.7953 10.0789C31.7953 9.46002 31.9745 8.85437 32.3113 8.33512C32.6481 7.81587 33.128 7.40525 33.6931 7.15285C34.2582 6.90046 34.8843 6.8171 35.4958 6.91284C36.1072 7.00858 36.6778 7.27933 37.1388 7.69237C37.5997 8.10541 37.9311 8.64308 38.093 9.24041C38.255 9.83775 38.2405 10.4692 38.0513 11.0585C37.8622 11.6478 37.5064 12.1697 37.027 12.5611C36.5477 12.9526 35.9652 13.1969 35.35 13.2645H34.6527C33.8679 13.1783 33.1424 12.8057 32.6151 12.2179C32.0879 11.6301 31.796 10.8685 31.7953 10.0789ZM41.1168 21.0547H28.8832V19.7695C28.8847 18.4073 29.4264 17.1013 30.3897 16.1381C31.3529 15.1749 32.6589 14.6331 34.0211 14.6317H35.9762C37.3389 14.6324 38.6456 15.1738 39.6094 16.1371C40.5732 17.1005 41.1154 18.4069 41.1168 19.7695V21.0547Z" fill="#263238"/>
<path d="M46.9082 22.4465V5.46877C46.9078 5.01886 46.8187 4.57345 46.646 4.15803C46.4732 3.74261 46.2202 3.36535 45.9015 3.04786C45.5827 2.73036 45.2044 2.47887 44.7883 2.30778C44.3722 2.13669 43.9265 2.04936 43.4766 2.0508H26.5234C26.0735 2.04936 25.6278 2.13669 25.2117 2.30778C24.7956 2.47887 24.4173 2.73036 24.0985 3.04786C23.7798 3.36535 23.5268 3.74261 23.354 4.15803C23.1813 4.57345 23.0922 5.01886 23.0918 5.46877V22.4465C23.0922 22.8964 23.1813 23.3418 23.354 23.7572C23.5268 24.1727 23.7798 24.5499 24.0985 24.8674C24.4173 25.1849 24.7956 25.4364 25.2117 25.6075C25.6278 25.7786 26.0735 25.8659 26.5234 25.8645H43.4766C43.9265 25.8659 44.3722 25.7786 44.7883 25.6075C45.2044 25.4364 45.5827 25.1849 45.9015 24.8674C46.2202 24.5499 46.4732 24.1727 46.646 23.7572C46.8187 23.3418 46.9078 22.8964 46.9082 22.4465ZM24.4617 22.4465V5.46877C24.4621 5.19863 24.5157 4.93123 24.6196 4.68186C24.7235 4.4325 24.8755 4.20608 25.067 4.01557C25.2586 3.82507 25.4858 3.67422 25.7357 3.57168C25.9856 3.46914 26.2533 3.41691 26.5234 3.41799H43.4766C44.0202 3.41871 44.5414 3.63501 44.9259 4.01945C45.3103 4.40388 45.5266 4.92509 45.5273 5.46877V22.4465C45.5266 22.9902 45.3103 23.5114 44.9259 23.8958C44.5414 24.2803 44.0202 24.4966 43.4766 24.4973H26.5234C26.2531 24.4987 25.9851 24.4468 25.7349 24.3444C25.4846 24.242 25.2571 24.0912 25.0653 23.9007C24.8735 23.7101 24.7212 23.4836 24.6171 23.234C24.5131 22.9845 24.4593 22.7169 24.459 22.4465H24.4617Z" fill="#263238"/>
<path d="M7.1586 64.493H20.7566C20.9379 64.493 21.1118 64.421 21.24 64.2928C21.3682 64.1646 21.4402 63.9907 21.4402 63.8094V61.8543C21.4389 60.4733 20.9988 59.1284 20.1834 58.0138C19.3681 56.8991 18.2197 56.0723 16.9039 55.6528C17.6207 55.0487 18.1345 54.2388 18.3756 53.333C18.6168 52.4271 18.5737 51.4691 18.2521 50.5885C17.9305 49.708 17.3461 48.9476 16.5779 48.4104C15.8098 47.8731 14.895 47.585 13.9576 47.585C13.0202 47.585 12.1055 47.8731 11.3373 48.4104C10.5692 48.9476 9.98471 49.708 9.66315 50.5885C9.3416 51.4691 9.29847 52.4271 9.53962 53.333C9.78078 54.2388 10.2945 55.0487 11.0113 55.6528C9.69559 56.0723 8.54718 56.8991 7.73183 58.0138C6.91648 59.1284 6.47637 60.4733 6.47501 61.8543V63.8094C6.47501 63.9907 6.54703 64.1646 6.67523 64.2928C6.80342 64.421 6.9773 64.493 7.1586 64.493ZM10.7543 52.1637C10.7543 51.5448 10.9335 50.9391 11.2703 50.4199C11.6071 49.9006 12.087 49.49 12.6521 49.2376C13.2172 48.9852 13.8433 48.9019 14.4547 48.9976C15.0662 49.0934 15.6368 49.3641 16.0977 49.7771C16.5586 50.1902 16.8901 50.7278 17.052 51.3252C17.214 51.9225 17.1995 52.554 17.0103 53.1432C16.8211 53.7325 16.4654 54.2544 15.986 54.6459C15.5067 55.0374 14.9242 55.2816 14.309 55.3492H13.609C12.8246 55.2624 12.0998 54.8895 11.5731 54.3018C11.0464 53.7141 10.7549 52.9529 10.7543 52.1637ZM7.84219 61.8543C7.84364 60.4921 8.38542 59.1861 9.34865 58.2229C10.3119 57.2596 11.6179 56.7179 12.9801 56.7164H14.9352C16.2974 56.7179 17.6034 57.2596 18.5666 58.2229C19.5298 59.1861 20.0716 60.4921 20.0731 61.8543V63.1258H7.84219V61.8543Z" fill="#263238"/>
<path d="M5.46875 67.9492H22.4465C23.3528 67.9484 24.2217 67.5881 24.8626 66.9473C25.5034 66.3064 25.8637 65.4375 25.8645 64.5312V47.5535C25.8637 46.6472 25.5034 45.7782 24.8626 45.1374C24.2217 44.4966 23.3528 44.1362 22.4465 44.1355H5.46875C4.56247 44.1362 3.69352 44.4966 3.05268 45.1374C2.41184 45.7782 2.05151 46.6472 2.05078 47.5535V64.5312C2.05151 65.4375 2.41184 66.3064 3.05268 66.9473C3.69352 67.5881 4.56247 67.9484 5.46875 67.9492ZM3.41797 47.5535C3.41869 47.0098 3.63499 46.4886 4.01943 46.1041C4.40387 45.7197 4.92507 45.5034 5.46875 45.5027H22.4465C22.9902 45.5034 23.5114 45.7197 23.8958 46.1041C24.2802 46.4886 24.4965 47.0098 24.4973 47.5535V64.5312C24.4965 65.0749 24.2802 65.5961 23.8958 65.9805C23.5114 66.365 22.9902 66.5813 22.4465 66.582H5.46875C4.92507 66.5813 4.40387 66.365 4.01943 65.9805C3.63499 65.5961 3.41869 65.0749 3.41797 64.5312V47.5535Z" fill="#263238"/>
<path d="M58.9887 55.6528C59.7054 55.0487 60.2192 54.2388 60.4604 53.333C60.7015 52.4271 60.6584 51.4691 60.3368 50.5885C60.0153 49.708 59.4308 48.9476 58.6627 48.4104C57.8945 47.8731 56.9798 47.585 56.0424 47.585C55.105 47.585 54.1902 47.8731 53.4221 48.4104C52.6539 48.9476 52.0695 49.708 51.7479 50.5885C51.4263 51.4691 51.3832 52.4271 51.6244 53.333C51.8655 54.2388 52.3793 55.0487 53.0961 55.6528C51.7803 56.0723 50.6319 56.8991 49.8166 58.0138C49.0012 59.1284 48.5611 60.4733 48.5598 61.8543V63.8094C48.5598 63.9907 48.6318 64.1646 48.76 64.2928C48.8882 64.421 49.062 64.493 49.2433 64.493H62.8414C63.0227 64.493 63.1966 64.421 63.3248 64.2928C63.453 64.1646 63.525 63.9907 63.525 63.8094V61.8543C63.5236 60.4733 63.0835 59.1284 62.2682 58.0138C61.4528 56.8991 60.3044 56.0723 58.9887 55.6528ZM52.8391 52.1637C52.8391 51.5448 53.0183 50.9391 53.355 50.4199C53.6918 49.9006 54.1717 49.49 54.7368 49.2376C55.3019 48.9852 55.928 48.9019 56.5395 48.9976C57.1509 49.0934 57.7216 49.3641 58.1825 49.7771C58.6434 50.1902 58.9748 50.7278 59.1368 51.3252C59.2987 51.9225 59.2842 52.554 59.0951 53.1432C58.9059 53.7325 58.5501 54.2544 58.0708 54.6459C57.5914 55.0374 57.0089 55.2816 56.3937 55.3492H55.6965C54.9111 55.2637 54.1849 54.8913 53.6571 54.3035C53.1293 53.7157 52.8371 52.9537 52.8363 52.1637H52.8391ZM62.1605 63.1258H49.9269V61.8543C49.9284 60.4921 50.4702 59.1861 51.4334 58.2229C52.3966 57.2596 53.7026 56.7179 55.0648 56.7164H57.0199C58.3821 56.7179 59.6881 57.2596 60.6513 58.2229C61.6146 59.1861 62.1564 60.4921 62.1578 61.8543L62.1605 63.1258Z" fill="#263238"/>
<path d="M64.5313 44.1355H47.5535C46.6472 44.1362 45.7783 44.4966 45.1375 45.1374C44.4966 45.7782 44.1363 46.6472 44.1356 47.5535V64.5312C44.1363 65.4375 44.4966 66.3064 45.1375 66.9473C45.7783 67.5881 46.6472 67.9484 47.5535 67.9492H64.5313C65.4375 67.9484 66.3065 67.5881 66.9473 66.9473C67.5882 66.3064 67.9485 65.4375 67.9492 64.5312V47.5535C67.9485 46.6472 67.5882 45.7782 66.9473 45.1374C66.3065 44.4966 65.4375 44.1362 64.5313 44.1355ZM66.582 64.5312C66.5813 65.0749 66.365 65.5961 65.9806 65.9805C65.5961 66.365 65.0749 66.5813 64.5313 66.582H47.5535C47.0098 66.5813 46.4886 66.365 46.1042 65.9805C45.7198 65.5961 45.5035 65.0749 45.5027 64.5312V47.5535C45.5035 47.0098 45.7198 46.4886 46.1042 46.1041C46.4886 45.7197 47.0098 45.5034 47.5535 45.5027H64.5313C65.0749 45.5034 65.5961 45.7197 65.9806 46.1041C66.365 46.4886 66.5813 47.0098 66.582 47.5535V64.5312Z" fill="#263238"/>
<path d="M37.7344 60.3914C37.7979 60.4551 37.8733 60.5056 37.9563 60.5401C38.0394 60.5745 38.1284 60.5923 38.2183 60.5923C38.3083 60.5923 38.3973 60.5745 38.4803 60.5401C38.5634 60.5056 38.6388 60.4551 38.7023 60.3914L42.5687 56.525C42.6324 56.4615 42.6829 56.3861 42.7174 56.303C42.7518 56.22 42.7696 56.131 42.7696 56.041C42.7696 55.9511 42.7518 55.8621 42.7174 55.7791C42.6829 55.696 42.6324 55.6206 42.5687 55.5571L38.6996 51.6797C38.5712 51.5514 38.3971 51.4792 38.2156 51.4792C38.0341 51.4792 37.86 51.5514 37.7316 51.6797C37.6033 51.8081 37.5312 51.9822 37.5312 52.1637C37.5312 52.3452 37.6033 52.5193 37.7316 52.6477L40.4305 55.3493H27.9152C27.7339 55.3493 27.56 55.4213 27.4318 55.5495C27.3037 55.6777 27.2316 55.8515 27.2316 56.0328C27.2316 56.2141 27.3037 56.388 27.4318 56.5162C27.56 56.6444 27.7339 56.7164 27.9152 56.7164H40.4332L37.7344 59.4262C37.6066 59.5543 37.5349 59.7279 37.5349 59.9088C37.5349 60.0898 37.6066 60.2633 37.7344 60.3914Z" fill="#EDF2F4"/>
<path d="M51.0316 33.4086C51.2129 33.4086 51.3868 33.3366 51.515 33.2084C51.6432 33.0802 51.7152 32.9063 51.7152 32.725V28.8969L60.5664 37.7481C60.6948 37.8765 60.8689 37.9486 61.0504 37.9486C61.2319 37.9486 61.406 37.8765 61.5344 37.7481C61.6627 37.6197 61.7348 37.4456 61.7348 37.2641C61.7348 37.0826 61.6627 36.9085 61.5344 36.7801L52.6832 27.929H56.5113C56.6926 27.929 56.8665 27.8569 56.9947 27.7287C57.1229 27.6005 57.1949 27.4267 57.1949 27.2454C57.1949 27.0641 57.1229 26.8902 56.9947 26.762C56.8665 26.6338 56.6926 26.5618 56.5113 26.5618H51.0426C50.8613 26.5618 50.6874 26.6338 50.5592 26.762C50.431 26.8902 50.359 27.0641 50.359 27.2454V32.7141C50.3575 32.8039 50.3738 32.8931 50.4068 32.9766C50.4398 33.06 50.489 33.1362 50.5514 33.2007C50.6139 33.2652 50.6885 33.3168 50.7709 33.3524C50.8532 33.3881 50.9419 33.4072 51.0316 33.4086Z" fill="#EDF2F4"/>
<path d="M19.4496 26.7722C19.3861 26.7086 19.3107 26.6581 19.2276 26.6236C19.1446 26.5892 19.0555 26.5714 18.9656 26.5714C18.8757 26.5714 18.7867 26.5892 18.7036 26.6236C18.6206 26.6581 18.5451 26.7086 18.4816 26.7722L9.63321 35.6234V31.7953C9.63321 31.614 9.56119 31.4401 9.43299 31.3119C9.30479 31.1837 9.13092 31.1117 8.94962 31.1117C8.76832 31.1117 8.59444 31.1837 8.46624 31.3119C8.33804 31.4401 8.26602 31.614 8.26602 31.7953V37.264C8.26602 37.4453 8.33804 37.6192 8.46624 37.7474C8.59444 37.8756 8.76832 37.9476 8.94962 37.9476H14.4184C14.5997 37.9476 14.7735 37.8756 14.9017 37.7474C15.0299 37.6192 15.102 37.4453 15.102 37.264C15.102 37.0827 15.0299 36.9089 14.9017 36.7807C14.7735 36.6525 14.5997 36.5804 14.4184 36.5804H10.5902L19.4414 27.7293C19.5678 27.6026 19.6394 27.4314 19.6409 27.2524C19.6425 27.0735 19.5738 26.9011 19.4496 26.7722Z" fill="#EDF2F4"/>
<path d="M64.8922 16.6797H63.7984V15.5859C63.7984 15.5134 63.7696 15.4439 63.7183 15.3926C63.6671 15.3413 63.5975 15.3125 63.525 15.3125C63.4525 15.3125 63.3829 15.3413 63.3316 15.3926C63.2804 15.4439 63.2516 15.5134 63.2516 15.5859V16.6797H62.1578C62.0853 16.6797 62.0157 16.7085 61.9645 16.7598C61.9132 16.8111 61.8844 16.8806 61.8844 16.9531C61.8844 17.0256 61.9132 17.0952 61.9645 17.1465C62.0157 17.1978 62.0853 17.2266 62.1578 17.2266H63.2516V18.3203C63.2516 18.3928 63.2804 18.4624 63.3316 18.5137C63.3829 18.5649 63.4525 18.5938 63.525 18.5938C63.5975 18.5938 63.6671 18.5649 63.7183 18.5137C63.7696 18.4624 63.7984 18.3928 63.7984 18.3203V17.2266H64.8922C64.9647 17.2266 65.0342 17.1978 65.0855 17.1465C65.1368 17.0952 65.1656 17.0256 65.1656 16.9531C65.1656 16.8806 65.1368 16.8111 65.0855 16.7598C65.0342 16.7085 64.9647 16.6797 64.8922 16.6797Z" fill="#FFDD00"/>
<path d="M54.3402 10.5273C54.0158 10.5273 53.6986 10.4311 53.4288 10.2508C53.159 10.0706 52.9487 9.81434 52.8245 9.51456C52.7003 9.21477 52.6678 8.8849 52.7311 8.56665C52.7944 8.2484 52.9507 7.95607 53.1801 7.72662C53.4096 7.49718 53.7019 7.34092 54.0202 7.27762C54.3384 7.21431 54.6683 7.2468 54.9681 7.37098C55.2679 7.49515 55.5241 7.70544 55.7044 7.97524C55.8846 8.24504 55.9809 8.56223 55.9809 8.88672C55.9809 9.32184 55.808 9.73914 55.5003 10.0468C55.1927 10.3545 54.7754 10.5273 54.3402 10.5273ZM54.3402 7.79297C54.1239 7.79297 53.9125 7.85712 53.7326 7.9773C53.5527 8.09748 53.4125 8.2683 53.3297 8.46816C53.247 8.66802 53.2253 8.88793 53.2675 9.1001C53.3097 9.31227 53.4139 9.50715 53.5668 9.66012C53.7198 9.81308 53.9147 9.91725 54.1269 9.95945C54.339 10.0017 54.5589 9.98 54.7588 9.89721C54.9587 9.81443 55.1295 9.67424 55.2497 9.49437C55.3698 9.31451 55.434 9.10304 55.434 8.88672C55.434 8.59664 55.3188 8.31844 55.1136 8.11332C54.9085 7.9082 54.6303 7.79297 54.3402 7.79297Z" fill="#40BDFF"/>
<path d="M41.9727 40.7094C41.6482 40.7094 41.331 40.6131 41.0612 40.4329C40.7914 40.2526 40.5811 39.9964 40.4569 39.6966C40.3327 39.3968 40.3003 39.0669 40.3636 38.7487C40.4269 38.4304 40.5831 38.1381 40.8126 37.9086C41.042 37.6792 41.3343 37.5229 41.6526 37.4596C41.9708 37.3963 42.3007 37.4288 42.6005 37.553C42.9003 37.6772 43.1565 37.8874 43.3368 38.1572C43.5171 38.427 43.6133 38.7442 43.6133 39.0687C43.6133 39.5038 43.4404 39.9211 43.1328 40.2288C42.8251 40.5365 42.4078 40.7094 41.9727 40.7094ZM41.9727 37.975C41.7563 37.975 41.5449 38.0391 41.365 38.1593C41.1851 38.2795 41.0449 38.4503 40.9622 38.6502C40.8794 38.85 40.8577 39.0699 40.8999 39.2821C40.9421 39.4943 41.0463 39.6892 41.1993 39.8421C41.3522 39.9951 41.5471 40.0993 41.7593 40.1415C41.9714 40.1837 42.1914 40.162 42.3912 40.0792C42.5911 39.9964 42.7619 39.8562 42.8821 39.6764C43.0023 39.4965 43.0664 39.2851 43.0664 39.0687C43.0664 38.7786 42.9512 38.5004 42.7461 38.2953C42.5409 38.0902 42.2627 37.975 41.9727 37.975Z" fill="#FFDD00"/>
<path d="M63.525 31.1719C63.2005 31.1719 62.8833 31.0757 62.6135 30.8954C62.3437 30.7151 62.1334 30.4589 62.0093 30.1591C61.8851 29.8593 61.8526 29.5294 61.9159 29.2112C61.9792 28.8929 62.1355 28.6006 62.3649 28.3712C62.5943 28.1417 62.8867 27.9855 63.2049 27.9221C63.5232 27.8588 63.8531 27.8913 64.1528 28.0155C64.4526 28.1397 64.7089 28.35 64.8891 28.6198C65.0694 28.8896 65.1656 29.2068 65.1656 29.5313C65.1656 29.9664 64.9928 30.3837 64.6851 30.6913C64.3774 30.999 63.9601 31.1719 63.525 31.1719ZM63.525 28.4375C63.3087 28.4375 63.0972 28.5016 62.9173 28.6218C62.7375 28.742 62.5973 28.9128 62.5145 29.1127C62.4317 29.3125 62.4101 29.5325 62.4523 29.7446C62.4945 29.9568 62.5986 30.1517 62.7516 30.3046C62.9046 30.4576 63.0994 30.5618 63.3116 30.604C63.5238 30.6462 63.7437 30.6245 63.9436 30.5417C64.1434 30.459 64.3142 30.3188 64.4344 30.1389C64.5546 29.959 64.6187 29.7476 64.6187 29.5313C64.6187 29.2412 64.5035 28.963 64.2984 28.7579C64.0933 28.5527 63.8151 28.4375 63.525 28.4375Z" fill="#40BDFF"/>
<path d="M16.0098 19.9609H15.3125L15.8129 19.4605C15.8577 19.4082 15.8811 19.341 15.8784 19.2721C15.8758 19.2033 15.8473 19.138 15.7986 19.0893C15.7499 19.0406 15.6846 19.0121 15.6158 19.0095C15.5469 19.0068 15.4797 19.0302 15.4273 19.075L14.927 19.5754V18.8672C14.927 18.7947 14.8981 18.7251 14.8469 18.6738C14.7956 18.6226 14.726 18.5938 14.6535 18.5938C14.581 18.5938 14.5114 18.6226 14.4602 18.6738C14.4089 18.7251 14.3801 18.7947 14.3801 18.8672V19.5754L13.8797 19.075C13.8274 19.0302 13.7601 19.0068 13.6913 19.0095C13.6225 19.0121 13.5572 19.0406 13.5085 19.0893C13.4598 19.138 13.4313 19.2033 13.4286 19.2721C13.4259 19.341 13.4493 19.4082 13.4941 19.4605L13.9809 19.9609H13.2754C13.2029 19.9609 13.1333 19.9897 13.082 20.041C13.0308 20.0923 13.002 20.1619 13.002 20.2344C13.002 20.3069 13.0308 20.3764 13.082 20.4277C13.1333 20.479 13.2029 20.5078 13.2754 20.5078H13.9836L13.4805 21.0082C13.4357 21.0605 13.4123 21.1278 13.4149 21.1966C13.4176 21.2654 13.4461 21.3307 13.4948 21.3794C13.5435 21.4281 13.6088 21.4566 13.6776 21.4593C13.7464 21.462 13.8137 21.4385 13.866 21.3937L14.3664 20.8934V21.6016C14.3664 21.6741 14.3952 21.7436 14.4465 21.7949C14.4978 21.8462 14.5673 21.875 14.6398 21.875C14.7124 21.875 14.7819 21.8462 14.8332 21.7949C14.8845 21.7436 14.9133 21.6741 14.9133 21.6016V20.8934L15.4137 21.3937C15.466 21.4385 15.5333 21.462 15.6021 21.4593C15.6709 21.4566 15.7362 21.4281 15.7849 21.3794C15.8336 21.3307 15.8621 21.2654 15.8648 21.1966C15.8674 21.1278 15.844 21.0605 15.7992 21.0082L15.3125 20.5078H16.0207C16.0932 20.5078 16.1628 20.479 16.2141 20.4277C16.2653 20.3764 16.2941 20.3069 16.2941 20.2344C16.2941 20.1619 16.2653 20.0923 16.2141 20.041C16.1628 19.9897 16.0932 19.9609 16.0207 19.9609H16.0098Z" fill="#40BDFF"/>
</svg>
